<?xml version="1.0" standalone="no"?>
<!DOCTYPE svg PUBLIC "-//W3C//DTD SVG 20010904//EN"
 "http://www.w3.org/TR/2001/REC-SVG-20010904/DTD/svg10.dtd">
<svg version="1.0" xmlns="http://www.w3.org/2000/svg"
 width="500.000000pt" height="500.000000pt" viewBox="0 0 500.000000 500.000000"
 preserveAspectRatio="xMidYMid meet">

<g transform="translate(0.000000,500.000000) scale(0.100000,-0.100000)"
fill="#000000" stroke="none">
<path d="M1225 4687 c-168 -74 -322 -194 -406 -319 -53 -77 -64 -108 -41 -108
40 0 147 45 217 90 121 80 217 185 279 308 30 59 25 62 -49 29z"/>
<path d="M3700 4704 c0 -14 83 -144 123 -192 64 -78 163 -158 242 -197 75 -37
160 -63 171 -52 12 12 -60 119 -129 193 -79 84 -181 157 -298 214 -78 38 -109
47 -109 34z"/>
<path d="M718 4547 c-137 -183 -209 -376 -189 -507 l7 -45 57 59 c90 93 143
224 167 418 18 142 14 149 -42 75z"/>
<path d="M4235 4522 c12 -173 55 -313 129 -416 47 -65 91 -105 103 -92 12 12
5 152 -11 207 -30 102 -123 268 -196 349 l-31 35 6 -83z"/>
<path d="M980 4257 c-178 -61 -305 -151 -355 -250 l-26 -52 38 -3 c130 -12
320 115 443 293 39 56 31 57 -100 12z"/>
<path d="M3921 4244 c131 -184 312 -304 442 -292 l37 3 -22 45 c-59 119 -258
243 -457 285 l-34 7 34 -48z"/>
<path d="M417 4138 c-85 -182 -117 -368 -82 -484 23 -76 31 -84 56 -54 34 41
76 131 88 192 17 78 15 258 -2 341 -8 37 -17 70 -20 73 -3 3 -21 -27 -40 -68z"/>
<path d="M4529 4158 c-9 -34 -14 -111 -14 -218 l0 -165 32 -68 c36 -75 70
-127 83 -127 5 0 17 21 27 48 27 69 24 222 -5 326 -24 84 -72 204 -96 237 -13
19 -15 17 -27 -33z"/>
<path d="M779 3932 c-141 -71 -240 -160 -285 -255 -47 -102 -26 -119 81 -69
77 37 115 70 169 146 49 69 126 216 113 216 -1 0 -37 -17 -78 -38z"/>
<path d="M4151 3943 c24 -64 84 -165 133 -224 54 -66 130 -116 209 -137 36
-10 37 -10 37 17 0 47 -57 147 -113 197 -78 70 -180 137 -252 164 -23 9 -24 8
-14 -17z"/>
<path d="M4752 3697 c-80 -164 -113 -335 -89 -452 19 -86 33 -125 47 -125 15
0 66 85 87 144 15 42 18 82 17 221 -1 109 -6 189 -15 224 l-14 54 -33 -66z"/>
<path d="M200 3698 c-7 -29 -15 -119 -18 -200 -4 -129 -2 -156 17 -215 21 -70
73 -163 90 -163 6 0 20 30 32 68 31 95 29 218 -4 332 -27 89 -66 182 -89 213
-13 17 -15 14 -28 -35z"/>
<path d="M1290 3703 c0 -3 9 -16 20 -28 19 -20 20 -37 22 -328 1 -203 5 -310
12 -316 6 -4 43 -8 81 -7 65 1 70 3 73 24 4 27 15 28 50 2 61 -44 163 -43 244
2 62 35 89 98 94 217 5 90 3 100 -23 151 -39 76 -96 105 -203 104 -50 0 -86
-6 -107 -17 -18 -9 -34 -17 -37 -17 -3 0 -7 48 -8 108 l-3 107 -107 3 c-60 1
-108 -1 -108 -5z m148 -129 c2 -16 10 -50 18 -75 13 -40 13 -50 -2 -90 -12
-34 -15 -73 -12 -169 3 -106 1 -125 -12 -125 -11 0 -17 16 -22 55 -8 71 -10
388 -2 418 9 31 28 22 32 -14z m216 -104 c43 -16 57 -58 58 -183 0 -132 -14
-185 -55 -205 -66 -32 -131 20 -143 114 -10 85 0 195 21 232 26 44 72 60 119
42z m156 -191 c0 -39 -4 -69 -10 -69 -6 0 -10 32 -10 76 0 47 4 73 10 69 6 -3
10 -37 10 -76z"/>
<path d="M3300 3701 c0 -5 11 -18 25 -29 23 -18 25 -27 25 -96 l0 -76 -45 0
c-25 0 -45 -3 -45 -8 0 -20 33 -51 58 -54 l27 -3 6 -165 c3 -101 10 -174 17
-187 23 -42 65 -55 191 -56 115 -2 116 -2 119 22 5 31 -12 41 -73 41 -28 0
-56 5 -63 12 -8 8 -12 63 -12 180 l0 168 70 0 c56 0 72 3 77 16 7 19 -5 43
-29 58 -11 6 -26 4 -51 -7 -69 -33 -72 -30 -72 85 l0 103 -112 3 c-68 2 -113
-1 -113 -7z m155 -128 c3 -21 10 -52 16 -69 6 -21 6 -41 -1 -58 -5 -15 -10
-51 -10 -79 0 -29 -3 -90 -7 -136 -5 -73 -8 -82 -20 -66 -9 13 -13 52 -13 127
0 71 -5 120 -14 142 -12 29 -12 40 -1 73 8 21 14 50 15 64 0 52 27 53 35 2z"/>
<path d="M635 3581 c-123 -103 -220 -241 -250 -356 -15 -58 -20 -125 -10 -125
15 0 89 44 120 72 73 63 158 218 200 363 37 129 38 128 -60 46z"/>
<path d="M4287 3608 c31 -165 141 -375 231 -446 46 -36 102 -65 110 -57 3 3 1
38 -6 78 -15 91 -66 194 -133 272 -51 59 -187 184 -201 185 -4 0 -5 -15 -1
-32z"/>
<path d="M2215 3521 c-53 -14 -113 -50 -135 -81 -72 -102 -57 -285 29 -363 54
-49 99 -62 221 -62 95 0 110 3 163 28 60 30 82 53 96 104 14 47 3 53 -86 52
l-80 -1 -12 -54 c-15 -65 -38 -84 -103 -84 -40 0 -50 4 -67 28 -11 16 -22 54
-26 88 l-7 61 122 6 c68 4 157 7 198 7 l75 0 -6 56 c-3 31 -18 81 -32 110 -22
45 -36 59 -78 81 -44 23 -67 27 -147 29 -52 2 -108 -1 -125 -5z m168 -58 c37
-42 48 -169 15 -167 -10 0 -56 1 -103 2 -83 2 -85 3 -85 27 0 43 21 125 37
140 21 22 115 20 136 -2z m-236 -157 c14 -29 14 -39 3 -66 -19 -46 -35 -31
-38 38 -3 71 9 81 35 28z"/>
<path d="M2770 3515 c-131 -41 -138 -175 -12 -220 26 -10 61 -23 77 -30 17 -7
64 -25 105 -40 41 -14 80 -31 87 -37 17 -14 17 -79 0 -102 -18 -25 -92 -39
-133 -26 -39 13 -54 35 -54 78 0 36 -13 42 -90 42 -76 0 -90 -6 -90 -39 0 -31
44 -77 100 -107 30 -16 58 -19 190 -19 137 0 160 2 201 21 40 19 49 28 63 70
15 45 15 50 -2 83 -20 39 -68 71 -135 91 -23 7 -51 16 -62 21 -11 5 -47 17
-79 27 -39 11 -66 26 -79 44 -19 26 -19 27 -1 64 41 82 166 63 176 -26 4 -36
14 -40 101 -40 l77 0 0 29 c0 43 -42 87 -106 110 -44 17 -77 21 -172 20 -70 0
-135 -6 -162 -14z"/>
<path d="M80 3223 c-1 -85 57 -274 115 -378 35 -64 139 -169 159 -162 20 7 11
155 -13 219 -31 81 -109 195 -190 280 l-70 73 -1 -32z"/>
<path d="M578 3197 c-59 -73 -112 -160 -146 -239 -22 -54 -26 -78 -26 -165 -1
-56 2 -105 7 -109 11 -11 77 46 114 100 59 86 107 278 101 407 l-3 64 -47 -58z"/>
<path d="M4373 3145 c9 -190 57 -325 150 -419 63 -64 72 -55 72 72 0 86 -4
105 -31 169 -34 77 -103 184 -160 248 l-36 40 5 -110z"/>
<path d="M4854 3188 c-153 -159 -223 -303 -224 -461 l0 -58 31 18 c49 29 125
115 157 179 51 102 111 320 100 369 -2 11 -20 -2 -64 -47z"/>
<path d="M607 2835 c-64 -109 -109 -250 -114 -355 -4 -96 13 -185 37 -185 22
0 87 99 109 169 29 87 44 234 36 343 -4 51 -11 95 -15 98 -5 3 -29 -28 -53
-70z"/>
<path d="M4337 2897 c-3 -8 -9 -57 -12 -109 -7 -101 5 -225 31 -314 16 -55 89
-174 111 -181 20 -7 38 77 38 177 0 109 -20 183 -86 315 -50 101 -74 134 -82
112z"/>
<path d="M84 2722 c48 -141 130 -275 215 -355 54 -50 153 -104 159 -86 8 21
-30 147 -58 196 -53 92 -174 209 -297 286 l-42 26 23 -67z"/>
<path d="M4860 2738 c-88 -59 -192 -158 -240 -230 -41 -62 -84 -181 -78 -217
3 -21 4 -20 56 4 68 32 111 67 166 138 67 87 175 306 164 337 -2 7 -30 -6 -68
-32z"/>
<path d="M2270 2715 c0 -8 9 -19 19 -25 25 -13 36 -62 19 -89 -10 -16 -10 -25
-1 -40 7 -12 8 -22 2 -28 -7 -7 -6 -19 2 -35 8 -18 8 -31 1 -45 -7 -12 -7 -25
-1 -34 13 -20 11 -153 -3 -184 -8 -19 -9 -28 0 -37 7 -7 8 -17 2 -28 -5 -10
-7 -40 -3 -68 5 -48 7 -50 42 -56 20 -3 57 -6 84 -6 l47 0 0 344 0 345 -105 0
c-83 0 -105 -3 -105 -14z m138 -335 c0 -102 -3 -194 -8 -205 -5 -12 -8 73 -8
210 0 130 3 219 8 205 4 -14 8 -108 8 -210z"/>
<path d="M2575 2720 c-3 -5 5 -16 17 -25 l23 -15 1 -310 c0 -170 3 -313 7
-317 4 -4 42 -7 85 -8 l77 0 3 342 2 342 -105 0 c-57 0 -107 -4 -110 -9z m135
-335 c0 -143 -4 -225 -10 -225 -6 0 -10 76 -10 209 0 188 4 241 16 241 2 0 4
-101 4 -225z"/>
<path d="M728 2545 c-32 -61 -67 -195 -78 -294 -12 -110 -2 -179 39 -259 35
-69 46 -70 80 -11 44 78 55 135 48 263 -5 104 -23 191 -59 291 l-15 40 -15
-30z"/>
<path d="M4226 2481 c-37 -115 -48 -198 -44 -309 3 -90 6 -105 38 -168 19 -38
39 -69 44 -69 15 0 45 48 68 110 39 107 23 298 -39 453 -14 34 -29 62 -34 62
-4 0 -19 -36 -33 -79z"/>
<path d="M1120 2535 c-97 -30 -133 -114 -75 -175 15 -16 49 -37 74 -47 25 -9
57 -23 71 -30 14 -7 31 -13 38 -13 7 0 20 -4 30 -9 9 -6 39 -18 65 -27 59 -21
80 -48 71 -93 -9 -42 -44 -64 -104 -65 -58 -1 -87 21 -96 73 -4 20 -12 39 -18
43 -18 13 -141 9 -154 -4 -20 -20 -14 -45 18 -82 51 -57 103 -71 270 -71 135
0 149 2 195 25 42 21 52 32 65 68 14 40 13 46 -5 80 -22 40 -95 87 -155 98
-19 4 -39 10 -45 14 -5 4 -37 15 -70 25 -93 26 -115 55 -86 115 18 38 56 53
108 44 40 -8 63 -33 66 -73 2 -39 16 -43 112 -39 l70 3 -2 30 c-3 40 -68 99
-127 114 -62 15 -261 13 -316 -4z"/>
<path d="M1817 2540 c-117 -30 -182 -110 -179 -220 5 -139 13 -164 72 -221 51
-50 96 -63 221 -63 98 -1 109 1 164 29 66 34 108 84 103 125 -3 24 -5 25 -90
27 l-87 2 -7 -45 c-10 -68 -35 -94 -93 -94 -63 0 -88 26 -103 108 -6 34 -10
64 -7 66 2 3 91 8 198 12 l194 7 -6 57 c-7 85 -43 148 -103 184 -44 26 -59 30
-144 32 -52 2 -112 -1 -133 -6z m172 -61 c12 -13 23 -43 26 -74 12 -91 14 -89
-100 -86 -55 1 -102 5 -104 7 -8 8 18 127 34 150 13 20 24 24 70 24 42 0 59
-5 74 -21z m-241 -144 c16 -35 15 -67 -2 -91 -19 -25 -27 -15 -33 40 -9 72 12
101 35 51z"/>
<path d="M3075 2541 c-53 -14 -113 -50 -135 -81 -72 -102 -57 -285 29 -363 54
-49 99 -62 221 -62 95 0 110 3 163 28 60 30 82 53 96 104 14 47 3 53 -86 52
l-80 -1 -12 -54 c-15 -65 -38 -84 -103 -84 -40 0 -50 4 -67 28 -11 16 -22 54
-26 88 l-7 61 122 6 c68 4 157 7 198 7 l75 0 -6 56 c-3 31 -18 81 -32 110 -22
45 -36 59 -78 81 -44 23 -67 27 -147 29 -52 2 -108 -1 -125 -5z m168 -58 c37
-42 48 -169 15 -167 -10 0 -56 1 -103 2 -83 2 -85 3 -85 27 0 43 21 125 37
140 21 22 115 20 136 -2z m-236 -157 c14 -29 14 -39 3 -66 -19 -46 -35 -31
-38 38 -3 71 9 81 35 28z"/>
<path d="M3520 2539 c0 -7 11 -22 25 -35 l25 -23 -3 -209 c-1 -116 2 -214 6
-219 5 -4 43 -8 85 -8 l77 0 5 195 5 195 45 23 c29 15 55 21 73 18 15 -3 50 0
78 6 42 10 49 15 47 32 -3 19 -11 21 -76 24 -66 3 -107 -3 -154 -23 -13 -5
-18 -2 -18 8 0 22 -22 27 -126 27 -63 0 -94 -4 -94 -11z m152 -191 c-3 -138
-10 -200 -23 -193 -10 7 -12 246 -3 283 4 12 11 22 18 22 8 0 10 -34 8 -112z"/>
<path d="M160 2291 c0 -22 113 -165 186 -238 89 -88 190 -147 272 -159 52 -8
53 -2 10 79 -70 130 -214 237 -415 308 -29 10 -53 14 -53 10z"/>
<path d="M4749 2266 c-92 -34 -207 -102 -275 -160 -46 -39 -103 -119 -128
-180 l-16 -39 47 7 c88 11 189 71 283 165 78 79 189 225 179 235 -2 3 -43 -10
-90 -28z"/>
<path d="M876 2204 c-28 -93 -33 -283 -11 -387 15 -73 63 -172 100 -207 l23
-21 18 48 c48 123 2 375 -100 545 -20 33 -25 37 -30 22z"/>
<path d="M4072 2138 c-86 -175 -119 -356 -87 -473 9 -36 21 -67 25 -70 13 -8
61 55 91 120 32 69 49 158 49 263 0 76 -17 207 -30 231 -4 8 -21 -16 -48 -71z"/>
<path d="M1083 1915 c13 -192 75 -350 175 -449 34 -32 65 -55 71 -52 16 10 14
142 -3 197 -31 100 -118 248 -205 345 l-44 49 6 -90z"/>
<path d="M3845 1918 c-40 -51 -88 -127 -122 -196 -54 -110 -56 -116 -61 -213
-6 -120 1 -124 80 -45 69 69 111 147 143 267 23 88 45 269 32 269 -3 0 -35
-37 -72 -82z"/>
<path d="M398 1832 c12 -16 52 -54 89 -84 163 -132 260 -179 381 -186 53 -3
82 -1 82 6 0 20 -78 109 -128 145 -87 64 -255 126 -386 142 l-59 7 21 -30z"/>
<path d="M4560 1853 c-137 -22 -277 -70 -360 -123 -54 -35 -150 -135 -150
-157 0 -20 107 -16 178 6 111 34 274 142 371 245 34 35 34 36 10 35 -13 -1
-35 -4 -49 -6z"/>
<path d="M1350 1696 c0 -27 43 -152 72 -209 58 -117 117 -178 213 -223 l50
-24 3 43 c9 111 -77 243 -238 363 -89 67 -100 73 -100 50z"/>
<path d="M3581 1670 c-118 -76 -233 -211 -261 -305 -6 -22 -10 -59 -8 -83 l3
-42 62 29 c73 35 126 85 176 167 37 62 100 234 95 260 -2 12 -19 5 -67 -26z"/>
<path d="M702 1468 c-41 -6 -70 -14 -65 -18 20 -21 175 -93 247 -115 146 -47
267 -52 361 -15 l30 12 -34 28 c-120 101 -306 138 -539 108z"/>
<path d="M4005 1466 c-44 -7 -103 -23 -130 -35 -56 -24 -145 -82 -145 -94 0
-11 46 -27 111 -39 107 -19 312 34 469 120 l65 36 -35 8 c-70 15 -255 17 -335
4z"/>
<path d="M1320 1210 c-102 -27 -250 -98 -230 -110 9 -5 53 -16 99 -25 170 -35
357 -7 443 65 l33 28 -58 27 c-80 37 -185 43 -287 15z"/>
<path d="M3435 1211 c-71 -20 -85 -28 -85 -46 0 -20 87 -71 154 -90 74 -22
256 -16 359 10 l68 18 -43 24 c-102 58 -253 103 -343 102 -27 0 -77 -8 -110
-18z"/>
<path d="M927 1006 c-20 -14 -50 -35 -66 -47 l-28 -21 -61 31 c-58 29 -92 32
-92 7 0 -6 7 -36 15 -66 18 -68 14 -83 -42 -143 -57 -61 -50 -70 60 -77 l82
-5 35 -64 c19 -36 40 -66 47 -68 16 -6 29 22 42 92 6 32 15 63 19 67 5 5 37
13 73 19 101 16 100 21 -14 117 -26 21 -27 26 -20 75 15 111 9 122 -50 83z"/>
<path d="M4045 1008 c-3 -7 -6 -46 -7 -87 l-3 -75 -57 -33 c-78 -46 -77 -65 3
-94 69 -25 88 -47 100 -117 5 -26 11 -53 14 -60 9 -23 42 5 81 69 l38 60 84
-3 c61 -2 86 1 89 9 3 7 -18 37 -46 66 -28 30 -51 61 -51 69 0 9 11 40 25 70
14 29 25 59 25 66 0 17 -38 15 -103 -7 l-57 -20 -57 50 c-59 51 -71 57 -78 37z"/>
<path d="M1679 708 c-15 -18 -39 -46 -52 -62 -23 -29 -26 -30 -64 -18 -47 14
-109 16 -117 3 -3 -5 8 -34 24 -65 38 -70 38 -95 -1 -163 -26 -45 -29 -57 -18
-64 19 -12 18 -12 90 10 73 23 79 21 145 -49 63 -67 78 -60 72 34 -3 39 -3 77
-1 84 3 8 34 27 69 43 39 17 64 34 64 44 0 9 -27 28 -67 47 l-68 33 -8 55
c-18 117 -22 121 -68 68z"/>
<path d="M3286 713 c-2 -10 -10 -44 -16 -75 -13 -65 -17 -70 -85 -87 -50 -12
-75 -26 -75 -42 0 -5 24 -25 54 -44 66 -45 79 -70 70 -145 -4 -38 -3 -60 5
-64 14 -9 66 23 105 63 35 36 57 38 126 11 93 -37 100 -23 44 78 l-36 64 20
27 c65 83 76 102 61 112 -8 5 -46 6 -85 3 l-70 -6 -40 61 c-39 61 -68 77 -78
44z"/>
<path d="M2503 628 c-6 -7 -23 -38 -38 -68 -32 -65 -41 -72 -77 -64 -37 7 -98
-6 -105 -23 -3 -8 12 -35 34 -61 53 -62 56 -76 34 -147 -10 -33 -17 -63 -14
-67 9 -16 50 -7 98 22 28 16 57 30 66 30 9 0 44 -19 78 -42 79 -53 92 -45 68
42 -25 89 -23 94 38 141 74 56 70 70 -25 90 l-75 15 -25 69 c-26 70 -39 85
-57 63z"/>
</g>
</svg>
